<svg xmlns="http://www.w3.org/2000/svg" xmlns:xlink="http://www.w3.org/1999/xlink" xmlns:xodm="http://www.corel.com/coreldraw/odm/2003" xml:space="preserve" version="1.1" style="shape-rendering:geometricPrecision; text-rendering:geometricPrecision; image-rendering:optimizeQuality; fill-rule:evenodd; clip-rule:evenodd" viewBox="7954.62 3269.75 18251.54 10481.17">
 <defs>
  <style type="text/css">
   <![CDATA[
    .fil7 {fill:#373435;fill-rule:nonzero}
    .fil0 {fill:#F26522;fill-rule:nonzero}
    .fil3 {fill:url(#id36)}
    .fil2 {fill:url(#id37)}
    .fil4 {fill:url(#id38)}
    .fil6 {fill:url(#id39)}
    .fil1 {fill:url(#id40)}
    .fil5 {fill:url(#id41)}
   ]]>
  </style>
  <clipPath id="id0">
   <rect x="20073.9" y="7461.57" width="1462.2" height="1598.16"/>
  </clipPath>
  <clipPath id="id1">
   <rect x="11903.94" y="5640.65" width="7645.6" height="4589.12"/>
  </clipPath>
  <clipPath id="id2">
   <path d="M11903.94 10229.77l7645.6 0 0 -4589.12 -7645.6 0 0 4589.12z"/>
  </clipPath>
  <clipPath id="id3">
   <rect x="11903.94" y="5640.65" width="7645.6" height="4589.12"/>
  </clipPath>
  <clipPath id="id4">
   <rect x="16672.22" y="7197.87" width="2712.1" height="1152.11"/>
  </clipPath>
  <clipPath id="id5">
   <rect x="20073.9" y="7461.57" width="1462.2" height="1598.16"/>
  </clipPath>
  <clipPath id="id6">
   <rect x="18328.65" y="7461.57" width="1462.2" height="1598.16"/>
  </clipPath>
  <clipPath id="id7">
   <rect x="16308.04" y="6071.12" width="4711.6" height="4978"/>
  </clipPath>
  <clipPath id="id8">
   <path d="M16308.04 11049.12l4711.6 0 0 -4978 -4711.6 0 0 4978z"/>
  </clipPath>
  <clipPath id="id9">
   <rect x="16308.04" y="6071.12" width="4711.6" height="4978"/>
  </clipPath>
  <clipPath id="id10">
   <rect x="11903.94" y="5640.65" width="7645.6" height="4589.12"/>
  </clipPath>
  <clipPath id="id11">
   <path d="M11903.94 10229.77l7645.6 0 0 -4589.12 -7645.6 0 0 4589.12z"/>
  </clipPath>
  <clipPath id="id12">
   <rect x="11903.94" y="5640.65" width="7645.6" height="4589.12"/>
  </clipPath>
  <clipPath id="id13">
   <rect x="20780.63" y="5017.97" width="4711.61" height="4977.99"/>
  </clipPath>
  <clipPath id="id14">
   <path d="M20780.63 9995.96l4711.61 0 0 -4977.99 -4711.61 0 0 4977.99z"/>
  </clipPath>
  <clipPath id="id15">
   <rect x="20780.63" y="5017.97" width="4711.61" height="4977.99"/>
  </clipPath>
  <clipPath id="id16">
   <rect x="18328.65" y="7461.57" width="1462.2" height="1598.16"/>
  </clipPath>
  <clipPath id="id17">
   <rect x="16308.04" y="6071.12" width="4711.6" height="4978"/>
  </clipPath>
  <clipPath id="id18">
   <path d="M16308.04 11049.12l4711.6 0 0 -4978 -4711.6 0 0 4978z"/>
  </clipPath>
  <clipPath id="id19">
   <rect x="16308.04" y="6071.12" width="4711.6" height="4978"/>
  </clipPath>
  <clipPath id="id20">
   <rect x="20780.63" y="5017.97" width="4711.61" height="4977.99"/>
  </clipPath>
  <clipPath id="id21">
   <path d="M20780.63 9995.96l4711.61 0 0 -4977.99 -4711.61 0 0 4977.99z"/>
  </clipPath>
  <clipPath id="id22">
   <rect x="20780.63" y="5017.97" width="4711.61" height="4977.99"/>
  </clipPath>
  <clipPath id="id23">
   <rect x="11903.94" y="5640.65" width="7645.6" height="4589.12"/>
  </clipPath>
  <clipPath id="id24">
   <path d="M11903.94 10229.77l7645.6 0 0 -4589.12 -7645.6 0 0 4589.12z"/>
  </clipPath>
  <clipPath id="id25">
   <rect x="11903.94" y="5640.65" width="7645.6" height="4589.12"/>
  </clipPath>
  <clipPath id="id26">
   <rect x="16672.22" y="7197.87" width="2712.1" height="1152.11"/>
  </clipPath>
  <clipPath id="id27">
   <rect x="16308.04" y="6071.12" width="4711.6" height="4978"/>
  </clipPath>
  <clipPath id="id28">
   <path d="M16308.04 11049.12l4711.6 0 0 -4978 -4711.6 0 0 4978z"/>
  </clipPath>
  <clipPath id="id29">
   <rect x="16308.04" y="6071.12" width="4711.6" height="4978"/>
  </clipPath>
  <clipPath id="id30">
   <rect x="16672.22" y="7197.87" width="2712.1" height="1152.11"/>
  </clipPath>
  <clipPath id="id31">
   <rect x="20073.9" y="7461.57" width="1462.2" height="1598.16"/>
  </clipPath>
  <clipPath id="id32">
   <rect x="18328.65" y="7461.57" width="1462.2" height="1598.16"/>
  </clipPath>
  <clipPath id="id33">
   <rect x="20780.63" y="5017.97" width="4711.61" height="4977.99"/>
  </clipPath>
  <clipPath id="id34">
   <path d="M20780.63 9995.96l4711.61 0 0 -4977.99 -4711.61 0 0 4977.99z"/>
  </clipPath>
  <clipPath id="id35">
   <rect x="20780.63" y="5017.97" width="4711.61" height="4977.99"/>
  </clipPath>
  <linearGradient id="id36" gradientUnits="objectBoundingBox" x1="70.1377%" y1="104.479%" x2="29.8623%" y2="0%">
   <stop offset="0" style="stop-opacity:1; stop-color:#B44B15"/>
   <stop offset="0.521569" style="stop-opacity:1; stop-color:#F26522"/>
   <stop offset="1" style="stop-opacity:1; stop-color:#B44B15"/>
  </linearGradient>
  <linearGradient id="id37" gradientUnits="objectBoundingBox" x1="58.8567%" y1="117.346%" x2="41.1432%" y2="0%">
   <stop offset="0" style="stop-opacity:1; stop-color:#F26522"/>
   <stop offset="0.521569" style="stop-opacity:1; stop-color:#F26522"/>
   <stop offset="1" style="stop-opacity:1; stop-color:#B44B15"/>
  </linearGradient>
  <linearGradient id="id38" gradientUnits="userSpaceOnUse" xlink:href="#id36" x1="19336.82" y1="11954.21" x2="19336.82" y2="7263.34">
  </linearGradient>
  <linearGradient id="id39" gradientUnits="userSpaceOnUse" xlink:href="#id36" x1="15196.17" y1="11954.21" x2="15196.17" y2="7263.34">
  </linearGradient>
  <linearGradient id="id40" gradientUnits="objectBoundingBox" xlink:href="#id36" x1="70.1375%" y1="104.479%" x2="29.8623%" y2="0%">
  </linearGradient>
  <linearGradient id="id41" gradientUnits="userSpaceOnUse" xlink:href="#id37" x1="11745.01" y1="11954.21" x2="11745.01" y2="7263.34">
  </linearGradient>
 </defs>
<symbol id="Símbolo2" viewBox="20073.9 7461.57 1462.2 1598.16">
 <g style="clip-path:url(#id0)">
  <image x="20073.9" y="7461.12" width="1462.6" height="1598.61" xlink:href="LOGO SVG_Images\LOGO SVG_ImgID1.png"/>
 </g>
</symbol>
<symbol id="Fm0-14-0" viewBox="11903.94 5640.65 7645.6 4589.12">
 <g style="clip-path:url(#id1)">
 </g>
 <g style="clip-path:url(#id2)">
  <image x="11903.75" y="5639.36" width="7647.75" height="4590.41" xlink:href="LOGO SVG_Images\LOGO SVG_ImgID2.png"/>
 </g>
 <g style="clip-path:url(#id3)">
 </g>
</symbol>
<symbol id="Símbolo4" viewBox="11311.14 3269.75 14895.02 7779.37">
</symbol>
<symbol id="Símbolo9" viewBox="16672.22 7197.87 2712.1 1152.11">
 <g style="clip-path:url(#id4)">
  <image x="16672.22" y="7197.55" width="2712.86" height="1152.43" xlink:href="LOGO SVG_Images\LOGO SVG_ImgID3.png"/>
 </g>
</symbol>
<symbol id="Símbolo10" viewBox="20073.9 7461.57 1462.2 1598.16">
 <g style="clip-path:url(#id5)">
  <image x="20073.9" y="7461.12" width="1462.6" height="1598.61" xlink:href="LOGO SVG_Images\LOGO SVG_ImgID4.png"/>
 </g>
</symbol>
<symbol id="Símbolo3" viewBox="18328.65 7461.57 1462.2 1598.16">
 <g style="clip-path:url(#id6)">
  <image x="18328.65" y="7461.12" width="1462.6" height="1598.61" xlink:href="LOGO SVG_Images\LOGO SVG_ImgID5.png"/>
 </g>
</symbol>
<symbol id="Símbolo8" viewBox="16308.04 6071.12 4711.6 4978">
 <g style="clip-path:url(#id7)">
 </g>
 <g style="clip-path:url(#id8)">
  <image x="16307.77" y="6069.72" width="4712.93" height="4979.4" xlink:href="LOGO SVG_Images\LOGO SVG_ImgID6.png"/>
 </g>
 <g style="clip-path:url(#id9)">
 </g>
</symbol>
<symbol id="Símbolo5" viewBox="11311.14 3269.75 14895.02 7779.37">
 <polygon class="fil0" points="12223.51,7245.47 14065.12,9689.72 19410.27,8424.34 17582.7,5998.68 "/>
 <polygon class="fil0" points="12297.08,7557.92 13495.43,9129.4 16279.02,8466.07 16511.57,8825.03 18887.5,7844.44 17663.6,6248.05 "/>
 <polygon class="fil0" points="18783.24,5017.59 22198.3,9561.26 25177.26,8859.79 21739.48,4321.49 "/>
 <polygon class="fil0" points="22198.32,9561.25 24152.07,8638.63 25177.24,8859.78 22934.99,5872.46 "/>
 <polygon class="fil1" points="23249.96,3965.81 22198.33,9561.22 25177.25,8859.79 26206.16,3269.75 "/>
 <polygon class="fil2" points="16483.29,5559.17 14376.01,6055.35 14298.68,6073.56 14303.51,6079.98 11311.14,6777.03 13152.75,9221.29 16134.39,8515.84 17713.78,10617.19 20692.71,9915.76 19100.65,7814.02 19109.76,7811.87 17282.16,5386.2 17264.66,5390.3 17254.92,5377.46 "/>
 <use x="16308.04" y="6071.12" width="4711.6" height="4978" xlink:href="#Símbolo8"/>
 <polygon class="fil0" points="17725.72,10614.4 19679.48,9691.81 20704.65,9912.93 18462.4,6925.61 "/>
 <polygon class="fil3" points="21733.54,4322.86 18777.3,5019 17725.74,10614.41 20704.63,9912.94 "/>
</symbol>
<symbol id="Símbolo6" viewBox="11903.94 5640.65 7645.6 4589.12">
 <g style="clip-path:url(#id10)">
 </g>
 <g style="clip-path:url(#id11)">
  <image x="11903.75" y="5639.36" width="7647.75" height="4590.41" xlink:href="LOGO SVG_Images\LOGO SVG_ImgID7.png"/>
 </g>
 <g style="clip-path:url(#id12)">
 </g>
</symbol>
<symbol id="Símbolo7" viewBox="20780.63 5017.97 4711.61 4977.99">
 <g style="clip-path:url(#id13)">
 </g>
 <g style="clip-path:url(#id14)">
  <image x="20780.36" y="5016.56" width="4712.93" height="4979.4" xlink:href="LOGO SVG_Images\LOGO SVG_ImgID8.png"/>
 </g>
 <g style="clip-path:url(#id15)">
 </g>
</symbol>
<symbol id="Símbolo13" viewBox="11311.14 3269.75 14895.02 7779.37">
 <polygon class="fil0" points="12223.51,7245.47 14065.12,9689.72 19410.27,8424.34 17582.7,5998.68 "/>
 <polygon class="fil0" points="12297.08,7557.92 13495.43,9129.4 16279.02,8466.07 16511.57,8825.03 18887.5,7844.44 17663.6,6248.05 "/>
 <polygon class="fil0" points="18783.24,5017.59 22198.3,9561.26 25177.26,8859.79 21739.48,4321.49 "/>
 <polygon class="fil0" points="22198.32,9561.25 24152.07,8638.63 25177.24,8859.78 22934.99,5872.46 "/>
 <polygon class="fil1" points="23249.96,3965.81 22198.33,9561.22 25177.25,8859.79 26206.16,3269.75 "/>
 <polygon class="fil2" points="16483.29,5559.17 14376.01,6055.35 14298.68,6073.56 14303.51,6079.98 11311.14,6777.03 13152.75,9221.29 16134.39,8515.84 17713.78,10617.19 20692.71,9915.76 19100.65,7814.02 19109.76,7811.87 17282.16,5386.2 17264.66,5390.3 17254.92,5377.46 "/>
 <polygon class="fil0" points="17725.72,10614.4 19679.48,9691.81 20704.65,9912.93 18462.4,6925.61 "/>
 <polygon class="fil3" points="21733.54,4322.86 18777.3,5019 17725.74,10614.41 20704.63,9912.94 "/>
</symbol>
<symbol id="Símbolo12" viewBox="11311.14 3269.75 14895.02 7779.37">
 <use x="11311.14" y="3269.75" width="14895.02" height="7779.37" xlink:href="#Símbolo13"/>
</symbol>
<symbol id="Símbolo11" viewBox="18328.65 7461.57 1462.2 1598.16">
 <g style="clip-path:url(#id16)">
  <image x="18328.65" y="7461.12" width="1462.6" height="1598.61" xlink:href="LOGO SVG_Images\LOGO SVG_ImgID9.png"/>
 </g>
</symbol>
<symbol id="Símbolo16" viewBox="16308.04 6071.12 4711.6 4978">
 <g style="clip-path:url(#id17)">
 </g>
 <g style="clip-path:url(#id18)">
  <image x="16307.77" y="6069.72" width="4712.93" height="4979.4" xlink:href="LOGO SVG_Images\LOGO SVG_ImgID10.png"/>
 </g>
 <g style="clip-path:url(#id19)">
 </g>
</symbol>
<symbol id="Símbolo15" viewBox="20780.63 5017.97 4711.61 4977.99">
 <g style="clip-path:url(#id20)">
 </g>
 <g style="clip-path:url(#id21)">
  <image x="20780.36" y="5016.56" width="4712.93" height="4979.4" xlink:href="LOGO SVG_Images\LOGO SVG_ImgID11.png"/>
 </g>
 <g style="clip-path:url(#id22)">
 </g>
</symbol>
<symbol id="Símbolo14" viewBox="11903.94 5640.65 7645.6 4589.12">
 <g style="clip-path:url(#id23)">
 </g>
 <g style="clip-path:url(#id24)">
  <image x="11903.75" y="5639.36" width="7647.75" height="4590.41" xlink:href="LOGO SVG_Images\LOGO SVG_ImgID12.png"/>
 </g>
 <g style="clip-path:url(#id25)">
 </g>
</symbol>
<symbol id="Fm0-26-0" viewBox="11311.14 3269.75 14895.02 7779.37">
</symbol>
<symbol id="Símbolo1" viewBox="16672.22 7197.87 2712.1 1152.11">
 <g style="clip-path:url(#id26)">
  <image x="16672.22" y="7197.55" width="2712.86" height="1152.43" xlink:href="LOGO SVG_Images\LOGO SVG_ImgID13.png"/>
 </g>
</symbol>
<symbol id="Fm0-25-0" viewBox="11311.14 3269.75 14895.02 7779.37">
 <polygon class="fil0" points="12223.51,7245.47 14065.12,9689.72 19410.27,8424.34 17582.7,5998.68 "/>
 <use x="11903.94" y="5640.65" width="7645.6" height="4589.12" xlink:href="#Fm0-14-0"/>
 <polygon class="fil0" points="12297.08,7557.92 13495.43,9129.4 16279.02,8466.07 16511.57,8825.03 18887.5,7844.44 17663.6,6248.05 "/>
 <polygon class="fil0" points="18783.24,5017.59 22198.3,9561.26 25177.26,8859.79 21739.48,4321.49 "/>
 <polygon class="fil0" points="22198.32,9561.25 24152.07,8638.63 25177.24,8859.78 22934.99,5872.46 "/>
 <polygon class="fil1" points="23249.96,3965.81 22198.33,9561.22 25177.25,8859.79 26206.16,3269.75 "/>
 <polygon class="fil2" points="16483.29,5559.17 14376.01,6055.35 14298.68,6073.56 14303.51,6079.98 11311.14,6777.03 13152.75,9221.29 16134.39,8515.84 17713.78,10617.19 20692.71,9915.76 19100.65,7814.02 19109.76,7811.87 17282.16,5386.2 17264.66,5390.3 17254.92,5377.46 "/>
 <polygon class="fil0" points="17725.72,10614.4 19679.48,9691.81 20704.65,9912.93 18462.4,6925.61 "/>
 <polygon class="fil3" points="21733.54,4322.86 18777.3,5019 17725.74,10614.41 20704.63,9912.94 "/>
</symbol>
<symbol id="Fm2-24-0" viewBox="16308.04 6071.12 4711.6 4978">
 <g style="clip-path:url(#id27)">
 </g>
 <g style="clip-path:url(#id28)">
  <image x="16307.77" y="6069.72" width="4712.93" height="4979.4" xlink:href="LOGO SVG_Images\LOGO SVG_ImgID14.png"/>
 </g>
 <g style="clip-path:url(#id29)">
 </g>
</symbol>
<symbol id="Fm0-93-0" viewBox="16672.22 7197.87 2712.1 1152.11">
 <g style="clip-path:url(#id30)">
  <image x="16672.22" y="7197.55" width="2712.86" height="1152.43" xlink:href="LOGO SVG_Images\LOGO SVG_ImgID15.png"/>
 </g>
</symbol>
<symbol id="Fm1-98-0" viewBox="20073.9 7461.57 1462.2 1598.16">
 <g style="clip-path:url(#id31)">
  <image x="20073.9" y="7461.12" width="1462.6" height="1598.61" xlink:href="LOGO SVG_Images\LOGO SVG_ImgID16.png"/>
 </g>
</symbol>
<symbol id="Fm2-103-0" viewBox="18328.65 7461.57 1462.2 1598.16">
 <g style="clip-path:url(#id32)">
  <image x="18328.65" y="7461.12" width="1462.6" height="1598.61" xlink:href="LOGO SVG_Images\LOGO SVG_ImgID17.png"/>
 </g>
</symbol>
<symbol id="Fm1-19-0" viewBox="20780.63 5017.97 4711.61 4977.99">
 <g style="clip-path:url(#id33)">
 </g>
 <g style="clip-path:url(#id34)">
  <image x="20780.36" y="5016.56" width="4712.93" height="4979.4" xlink:href="LOGO SVG_Images\LOGO SVG_ImgID18.png"/>
 </g>
 <g style="clip-path:url(#id35)">
 </g>
</symbol>
 <g id="Camada_x0020_1">
  <metadata id="CorelCorpID_0Corel-Layer"/>
  <g id="_660106427280">
   <g>
    <use transform="scale(2.37255 2.37255)" x="6930.06" y="3561.65" width="1462.2" height="1598.16" xlink:href="#Fm1-98-0"/>
    <polygon class="fil0" points="13616.5,7875.98 14718.64,10381.16 9768.65,10387.09 8658.12,7862.67 "/>
    <use transform="scale(2.37255 2.37255)" x="3528.38" y="3297.95" width="2712.1" height="1152.11" xlink:href="#Fm0-93-0"/>
    <polygon class="fil0" points="9384.67,9777.91 8658.1,8151.98 13635.98,8111.45 14379.8,9764.51 12093.25,10133.86 11963.35,9770.96 "/>
    <polygon class="fil0" points="17609.08,7263.34 14872.22,7263.34 16929.37,11954.23 19687.22,11954.23 "/>
    <polygon class="fil0" points="18337.38,8870.74 19687.2,11954.18 18833.65,11548.5 16929.34,11954.18 "/>
    <polygon class="fil4" points="16929.32,11954.21 19687.24,11954.21 21744.32,7263.34 19007.46,7263.34 "/>
    <polygon class="fil5" points="12777.54,11954.21 15535.4,11954.21 14573.11,9781.82 14581.49,9781.82 13479.44,7276.65 13463.18,7276.65 13457.32,7263.34 10720.39,7263.34 10723.31,7270.03 7954.62,7263.34 7954.62,7263.38 9065.18,9787.68 11826.22,9784.74 "/>
    <use transform="scale(2.37255 2.37255)" x="5184.81" y="3561.65" width="1462.2" height="1598.16" xlink:href="#Fm2-103-0"/>
    <polygon class="fil0" points="14196.68,8870.74 15546.5,11954.18 14692.93,11548.5 12788.62,11954.18 "/>
    <polygon class="fil6" points="12788.67,11954.21 15546.45,11954.21 17603.67,7263.34 14866.74,7263.34 "/>
   </g>
   <path class="fil7" d="M10232.99 12769.08l0 95.44 -491.59 0 0 312.47 371.52 0 0 95.43 -371.52 0 0 460.19 -113.52 0 0 -963.53 605.11 0zm1218.7 0l-224.65 963.53 -150.57 0 -116.14 -546.7c-12.42,-56.64 -32.47,-161.68 -60.14,-314.85l-22.23 0c-19.61,125.94 -38.78,230.1 -57.52,312.24l-123.12 549.31 -150.12 0 -214.41 -963.53 117.45 0 109.81 538.86c16.56,79.75 34.43,184.99 53.61,316.17l22.22 0c33.77,-180.86 53.17,-284.57 58.84,-310.95l119.4 -544.08 157.53 0 116.8 551.72c13.73,67.77 32.9,168.87 57.53,303.31l22.44 0c5.89,-31.6 15.69,-86.94 29.19,-166.05 9.82,-55.77 18.74,-102.83 26.81,-141.19l115.06 -547.79 112.21 0zm1165.1 0l0 95.44 -492.89 0 0 308.54 372.82 0 0 95.44 -372.82 0 0 368.68 501.82 0 0 95.43 -615.35 0 0 -963.53 606.42 0zm789.66 212.01l-113.53 33.78c-32.9,-113.31 -100.89,-169.97 -204.38,-169.97 -63.84,0 -113.09,15.91 -147.95,47.94 -30.29,27.68 -45.54,63.42 -45.54,107.65 0,53.59 16.78,94.13 49.9,121.36 29.41,24.2 79.53,45.32 150.55,63.19l41.63 12c117.44,29.85 196.98,69.49 238.81,118.74 32.69,39.23 49.03,92.84 49.03,160.81 0,89.34 -32.25,158.62 -96.96,207.87 -58.83,44.24 -137.07,66.46 -234.9,66.46 -95.88,0 -174.1,-23.09 -234.89,-69.5 -53.83,-40.75 -91.29,-98.05 -113.09,-172.15l112.44 -39.43c16.12,65.37 47.5,114.4 94.34,147.52 39.23,27.23 85.42,40.74 138.59,40.74 76.92,0 134.44,-17.87 172.36,-53.61 30.72,-28.98 45.97,-67.32 45.97,-115.47 0,-54.92 -15.91,-95.67 -47.94,-122.47 -30.94,-26.79 -86.94,-50.77 -167.78,-72.11l-38.34 -11.56c-108.51,-29.2 -183.04,-67.76 -223.35,-115.49 -33.34,-39.43 -49.9,-93.48 -49.9,-162.1 0,-76.06 29.42,-137.94 88.03,-185.66 55.35,-45.1 127.46,-67.55 216.37,-67.55 164.3,0 271.28,76.26 320.53,229.01zm850.45 -212.01l0 96.74 -302.01 0 0 866.79 -115.05 0 0 -866.79 -299.38 0 0 -96.74 716.44 0zm502.25 0l309.63 963.53 -118.75 0 -93.26 -305.92 -343.41 0 -96.97 305.92 -111.12 0 309.63 -963.53 144.25 0zm72.79 568.71l-71.48 -234.24c-18.74,-59.92 -41.4,-142.29 -68.21,-246.87l-19.81 0c-21.8,90.64 -43.81,172.57 -66.46,245.57l-70.83 235.54 296.79 0zm1343.76 -568.71l0 963.53 -108.51 0 0 -566.3 2.4 -304.41 -22.23 0c-32.25,120.94 -60.58,219.87 -84.99,296.78l-181.28 573.93 -145.55 0 -177.37 -572.62c-13.31,-41.19 -28.99,-93.91 -47.3,-157.54 -20.47,-72.13 -33.76,-118.76 -40.08,-140.55l-22.45 0c-0.44,13.96 -0.66,28.99 -0.66,44.68l3.27 261.68 0 564.35 -102.19 0 0 -963.53 190.89 0 172.35 567.84c8.49,28.11 23.97,79.75 46.63,155.14 16.99,57.97 30.72,104.16 41.4,138.59l22.44 0c4.58,-14.82 34.65,-112 90,-291.33l174.97 -570.24 188.26 0zm274.55 0l320.54 0c222.03,0 333.15,89.34 333.15,267.8 0,91.51 -33.12,161.68 -99.58,210.27 -59.26,42.92 -140.32,64.5 -243.17,64.5l-198.49 0 0 420.96 -112.45 0 0 -963.53zm112.45 91.51l0 362.15 193.27 0c153.61,0 230.52,-61.44 230.52,-184.56 0,-118.31 -74.29,-177.59 -222.9,-177.59l-200.89 0zm1074.22 -91.51l309.64 963.53 -118.76 0 -93.26 -305.92 -343.41 0 -96.96 305.92 -111.13 0 309.63 -963.53 144.25 0zm72.79 568.71l-71.48 -234.24c-18.74,-59.92 -41.39,-142.29 -68.21,-246.87l-19.81 0c-21.8,90.64 -43.81,172.57 -66.46,245.57l-70.83 235.54 296.79 0zm416.82 -568.71l324.23 0c220.52,0 330.77,84.11 330.77,252.33 0,64.92 -19.39,118.96 -58.17,162.1 -35.3,39.45 -84.11,66.46 -146.21,80.41l230.53 468.69 -125.73 0 -212.01 -449.73 -232.27 0 0 449.73 -111.14 0 0 -963.53zm111.14 91.51l0 333.39 198.49 0c152.75,0 229.23,-57.09 229.23,-171.27 0,-57.74 -19.18,-99.79 -57.52,-125.73 -35.74,-24.18 -90.21,-36.39 -163.42,-36.39l-206.78 0zm879.42 -91.51l0 963.53 -113.52 0 0 -963.53 113.52 0zm634.52 0l309.64 963.53 -118.76 0 -93.26 -305.92 -343.41 0 -96.96 305.92 -111.13 0 309.64 -963.53 144.24 0zm72.79 568.71l-71.48 -234.24c-18.74,-59.92 -41.39,-142.29 -68.2,-246.87l-19.82 0c-21.8,90.64 -43.81,172.57 -66.46,245.57l-70.82 235.54 296.78 0z"/>
  </g>
 </g>
</svg>