<svg version="1.2" xmlns="http://www.w3.org/2000/svg" viewBox="0 0 3600 2028" width="3600" height="2028">
	<title>logo-svg</title>
	<defs>
		<clipPath clipPathUnits="userSpaceOnUse" id="cp1">
			<path d="m14105.06 4946.29h867.29v947.92h-867.29z"/>
		</clipPath>
		<clipPath clipPathUnits="userSpaceOnUse" id="cp2">
			<path d="m10069.73 4633.46h1608.65v683.36h-1608.65z"/>
		</clipPath>
		<linearGradient id="g1" x2="1" gradientUnits="userSpaceOnUse" gradientTransform="matrix(0,-1172.717,1203.75,0,2921.205,1394.552)">
			<stop offset="0" stop-color="#b44b15"/>
			<stop offset=".521" stop-color="#f26522"/>
			<stop offset="1" stop-color="#b44b15"/>
		</linearGradient>
		<linearGradient id="g2" x2="1" gradientUnits="userSpaceOnUse" gradientTransform="matrix(0,-1172.717,1895.195,0,1023.253,1394.552)">
			<stop offset="0" stop-color="#f26522"/>
			<stop offset=".521" stop-color="#f26522"/>
			<stop offset="1" stop-color="#b44b15"/>
		</linearGradient>
		<clipPath clipPathUnits="userSpaceOnUse" id="cp3">
			<path d="m12034.71 4946.29h867.29v947.92h-867.29z"/>
		</clipPath>
		<linearGradient id="g3" x2="1" gradientUnits="userSpaceOnUse" gradientTransform="matrix(0,-1172.717,1203.75,0,1886.042,1394.552)">
			<stop offset="0" stop-color="#b44b15"/>
			<stop offset=".521" stop-color="#f26522"/>
			<stop offset="1" stop-color="#b44b15"/>
		</linearGradient>
	</defs>
	<style>
		.s0 { fill: #f26522 } 
		.s1 { fill: url(#g1) } 
		.s2 { fill: url(#g2) } 
		.s3 { fill: url(#g3) } 
		.s4 { fill: #373435 } 
	</style>
	<g id="Camada_x0020_1">
		<g id="_660106427280">
			<g id="Layer">
				<g id="Fm1-98-0">
					<g id="Clip-Path" clip-path="url(#cp1)">
						<g id="Layer">
						</g>
					</g>
				</g>
				<path id="Layer" class="s0" d="m1491.1 375l275.6 626.3-1237.5 1.5-277.7-631.1z"/>
				<g id="Fm0-93-0">
					<g id="Clip-Path" clip-path="url(#cp2)">
						<g id="Layer">
						</g>
					</g>
				</g>
				<path id="Layer" class="s0" d="m433.2 850.5l-181.7-406.5 1244.5-10.1 185.9 413.2-571.6 92.4-32.5-90.8z"/>
				<path id="Layer" class="s0" d="m2489.3 221.8h-684.2l514.2 1172.8h689.5z"/>
				<path id="Layer" class="s0" d="m2671.3 623.7l337.5 770.8-213.4-101.4-476.1 101.4z"/>
				<path id="Layer" class="s1" d="m2319.3 1394.6h689.5l514.3-1172.8h-684.2z"/>
				<path id="Layer" class="s2" d="m1281.4 1394.6h689.5l-240.6-543.1h2.1l-275.5-626.3h-4.1l-1.5-3.4h-684.2l0.7 1.7-692.1-1.7 277.6 631.1 690.3-0.7z"/>
				<g id="Fm2-103-0">
					<g id="Clip-Path" clip-path="url(#cp3)">
						<g id="Layer">
						</g>
					</g>
				</g>
				<path id="Layer" class="s0" d="m1636.2 623.7l337.4 770.8-213.4-101.4-476 101.4z"/>
				<path id="Layer" class="s3" d="m1284.2 1394.6h689.4l514.3-1172.8h-684.2z"/>
			</g>
			<path id="Layer" fill-rule="evenodd" class="s4" d="m645.2 1598.3v23.8h-122.9v78.1h92.9v23.9h-92.9v115.1h-28.3v-240.9zm304.6 0l-56.1 240.9h-37.7l-29-136.7c-3.1-14.2-8.1-40.4-15-78.7h-5.6q-7.3 47.2-14.4 78l-30.7 137.4h-37.6l-53.6-240.9h29.4l27.4 134.7c4.2 19.9 8.6 46.2 13.4 79h5.6c8.4-45.2 13.3-71.1 14.7-77.7l29.9-136h39.3l29.2 137.9q5.2 25.4 14.4 75.8h5.6q2.2-11.8 7.3-41.5 3.7-20.9 6.7-35.3l28.8-136.9zm291.3 0v23.8h-123.3v77.2h93.3v23.8h-93.3v92.2h125.5v23.9h-153.8v-240.9zm197.4 53l-28.4 8.4c-8.2-28.3-25.2-42.5-51.1-42.5-16 0-28.3 4-37 12-7.6 6.9-11.4 15.9-11.4 26.9 0 13.4 4.2 23.6 12.5 30.4 7.4 6 19.9 11.3 37.6 15.8l10.4 3c29.4 7.4 49.3 17.3 59.7 29.6q12.3 14.8 12.3 40.2 0 33.5-24.2 52c-14.7 11.1-34.3 16.6-58.8 16.6-23.9 0-43.5-5.7-58.7-17.3-13.4-10.2-22.8-24.6-28.3-43.1l28.2-9.8c4 16.3 11.8 28.6 23.5 36.8q14.8 10.2 34.7 10.2 28.8 0 43.1-13.4c7.7-7.2 11.5-16.8 11.5-28.8 0-13.8-4-24-12-30.7-7.7-6.7-21.7-12.7-42-18l-9.5-2.9c-27.2-7.3-45.8-16.9-55.9-28.9q-12.5-14.7-12.5-40.5 0.1-28.5 22.1-46.4 20.7-16.9 54-16.9c41.1 0 67.9 19.1 80.2 57.3zm212.6-53v24.2h-75.5v216.7h-28.8v-216.7h-74.8v-24.2zm125.5 0l77.5 240.9h-29.7l-23.4-76.5h-85.8l-24.2 76.5h-27.8l77.4-240.9zm18.2 142.1l-17.9-58.5c-4.7-15-10.3-35.6-17-61.7h-5c-5.4 22.6-10.9 43.1-16.6 61.4l-17.7 58.8zm335.9-142.1v240.9h-27.1v-141.6l0.6-76.1h-5.6q-12.1 45.3-21.2 74.2l-45.3 143.5h-36.4l-44.4-143.2c-3.3-10.3-7.2-23.5-11.8-39.4-5.1-18-8.4-29.7-10-35.1h-5.6c-0.1 3.5-0.2 7.2-0.2 11.1l0.8 65.5v141.1h-25.5v-240.9h47.7l43.1 141.9c2.1 7.1 6 20 11.7 38.8q6.3 21.8 10.3 34.7h5.6c1.2-3.7 8.7-28 22.5-72.9l43.8-142.5zm68.6 0h80.1c55.5 0 83.3 22.3 83.3 66.9 0 22.9-8.3 40.4-24.9 52.6q-22.2 16.1-60.8 16.1h-49.6v105.3h-28.1zm28.1 22.8v90.6h48.3c38.4 0 57.7-15.4 57.7-46.2q0-44.4-55.8-44.4zm268.6-22.8l77.4 240.8h-29.7l-23.3-76.4h-85.9l-24.2 76.4h-27.8l77.4-240.8zm18.2 142.1l-17.9-58.5c-4.6-15-10.3-35.6-17-61.7h-5c-5.4 22.6-10.9 43.1-16.6 61.3l-17.7 58.9zm104.2-142.1h81.1q82.7 0 82.7 63 0 24.4-14.6 40.6c-8.8 9.8-21 16.6-36.5 20.1l57.6 117.1h-31.4l-53-112.4h-58.1v112.4h-27.8zm27.8 22.9v83.4h49.6q57.3 0 57.3-42.9c0-14.4-4.8-24.9-14.3-31.4q-13.4-9.1-40.9-9.1zm219.9-22.9v240.9h-28.4v-240.9zm158.6 0l77.4 240.9h-29.7l-23.3-76.5h-85.8l-24.3 76.5h-27.8l77.5-240.9zm18.1 142.2l-17.8-58.5c-4.7-15-10.4-35.6-17.1-61.8h-4.9c-5.5 22.7-11 43.2-16.6 61.4l-17.7 58.9z"/>
		</g>
	</g>
</svg>